<?xml version="1.0" encoding="utf-8"?>
<!-- Generator: Adobe Illustrator 21.0.0, SVG Export Plug-In . SVG Version: 6.00 Build 0)  -->
<svg version="1.1" id="Layer_1" xmlns="http://www.w3.org/2000/svg" xmlns:xlink="http://www.w3.org/1999/xlink" x="0px" y="0px"
	 viewBox="0 0 1920 320" style="enable-background:new 0 0 1920 320;" xml:space="preserve">
<style type="text/css">
	.st0{fill:#00A6FB;}
	.st1{fill:#008CDB;}
	.st2{fill:#004999;}
</style>
<g id="Background">
</g>
<g id="Layer_2">
	<path class="st0" d="M408.2,254l-12.1,3c-5.6,1.4-9.9,5.7-11.3,11.3l-3,12.1l-3-12.1c-1.4-5.6-5.7-9.9-11.3-11.3l-12.1-3l12.1-3
		c5.6-1.4,9.9-5.7,11.3-11.3l3-12.1l3,12.1c1.4,5.6,5.7,9.9,11.3,11.3L408.2,254z"/>
	<path class="st1" d="M1626.8,63.2l-18.6,4.6c-8.6,2.1-15.3,8.8-17.4,17.4l-4.6,18.6l-4.6-18.6c-2.1-8.6-8.8-15.3-17.4-17.4
		l-18.6-4.6l18.6-4.6c8.6-2.1,15.3-8.8,17.4-17.4l4.6-18.6l4.6,18.6c2.1,8.6,8.8,15.3,17.4,17.4L1626.8,63.2z"/>
	<circle class="st1" cx="561.1" cy="129.1" r="6.4"/>
	<circle class="st1" cx="1682.2" cy="208.9" r="6.7"/>
	<circle class="st1" cx="1790.2" cy="257.1" r="5"/>
	<circle class="st1" cx="1752.2" cy="308.9" r="7.3"/>
	<circle class="st1" cx="1441.4" cy="184.4" r="9.7"/>
	<circle class="st1" cx="1385.6" cy="288" r="6.7"/>
	<circle class="st1" cx="1478" cy="38" r="3.9"/>
	<circle class="st1" cx="392" cy="135.6" r="5"/>
	<circle class="st1" cx="293.5" cy="104.5" r="3.7"/>
	<circle class="st1" cx="193.4" cy="43.2" r="6.4"/>
	<circle class="st1" cx="464.8" cy="170.2" r="6.7"/>
	<circle class="st1" cx="572.7" cy="218.4" r="5"/>
	<circle class="st1" cx="534.8" cy="270.2" r="7.3"/>
	<circle class="st1" cx="1496.7" cy="298.3" r="9.7"/>
	<circle class="st1" cx="661.3" cy="303.3" r="3.7"/>
	<circle class="st1" cx="704.5" cy="275" r="3.3"/>
	<circle class="st1" cx="757.4" cy="266.1" r="4"/>
	<circle class="st1" cx="153.8" cy="277.3" r="3.7"/>
	<circle class="st1" cx="167.3" cy="179" r="3.3"/>
	<circle class="st1" cx="299" cy="239" r="4"/>
	<circle class="st1" cx="225" cy="250" r="4"/>
	<circle class="st1" cx="225" cy="288" r="4"/>
	<circle class="st1" cx="796.9" cy="249.9" r="5.5"/>
	<circle class="st1" cx="826.4" cy="226.1" r="2.6"/>
	<circle class="st1" cx="805.4" cy="311.2" r="3.1"/>
	<circle class="st1" cx="800.2" cy="71.9" r="6.7"/>
	<circle class="st1" cx="931.3" cy="126.5" r="3.9"/>
	<circle class="st1" cx="960" cy="63.6" r="3.9"/>
	<circle class="st1" cx="1057.1" cy="36.3" r="1.5"/>
	<circle class="st1" cx="1106.3" cy="8.7" r="3.7"/>
	<circle class="st1" cx="1138.3" cy="82.7" r="4.3"/>
	<circle class="st1" cx="1206.4" cy="70" r="6.4"/>
	<circle class="st1" cx="1247.3" cy="100.2" r="3.1"/>
	<circle class="st1" cx="1234.1" cy="128.6" r="3.1"/>
	<circle class="st1" cx="1271.3" cy="146.5" r="2.6"/>
	<circle class="st1" cx="1250.3" cy="16.6" r="3.1"/>
	<circle class="st1" cx="1542.7" cy="123.3" r="3.9"/>
	<circle class="st1" cx="1415.2" cy="68.8" r="6.7"/>
	<ellipse transform="matrix(0.676 -0.7369 0.7369 0.676 229.3071 654.2756)" class="st1" cx="858.7" cy="66.4" rx="6.7" ry="6.7"/>
	<ellipse transform="matrix(0.676 -0.7369 0.7369 0.676 159.513 589.5609)" class="st1" cx="750.2" cy="113.4" rx="5" ry="5"/>
	<ellipse transform="matrix(0.676 -0.7369 0.7369 0.676 147.231 807.2972)" class="st1" cx="991.7" cy="236.2" rx="9.7" ry="9.7"/>
	<ellipse transform="matrix(0.676 -0.7369 0.7369 0.676 141.0433 714.1878)" class="st1" cx="882.7" cy="196.7" rx="9.7" ry="9.7"/>
	
		<ellipse transform="matrix(0.676 -0.7369 0.7369 0.676 166.7092 978.2173)" class="st1" cx="1195.8" cy="299.5" rx="6.7" ry="6.7"/>
	<circle class="st1" cx="1672" cy="33.1" r="1.5"/>
	<circle class="st1" cx="1721.2" cy="5.5" r="3.7"/>
	<circle class="st1" cx="1753.2" cy="79.6" r="4.3"/>
	<circle class="st2" cx="1280.4" cy="66" r="6.7"/>
	<circle class="st2" cx="1388.4" cy="114.2" r="5"/>
	<circle class="st2" cx="1350.4" cy="166" r="7.3"/>
	<circle class="st2" cx="1104.7" cy="119.2" r="9.7"/>
	<circle class="st2" cx="1171" cy="262.4" r="6.7"/>
	<circle class="st2" cx="1302" cy="313" r="3.9"/>
	<circle class="st2" cx="1639.7" cy="124.7" r="1.5"/>
	<circle class="st2" cx="1688.8" cy="97.1" r="3.7"/>
	<circle class="st2" cx="1732" cy="68.9" r="3.3"/>
	<circle class="st2" cx="1784.9" cy="60" r="4"/>
	<circle class="st2" cx="1824.4" cy="43.7" r="5.5"/>
	<circle class="st2" cx="1853.9" cy="19.9" r="2.6"/>
	<circle class="st2" cx="1720.9" cy="171.2" r="4.3"/>
	<circle class="st2" cx="1788.9" cy="158.4" r="6.4"/>
	<circle class="st2" cx="1829.8" cy="188.7" r="3.1"/>
	<circle class="st2" cx="1816.7" cy="217.1" r="3.1"/>
	<circle class="st2" cx="1853.9" cy="234.9" r="2.6"/>
	<circle class="st2" cx="1832.9" cy="105.1" r="3.1"/>
	<circle class="st2" cx="484.1" cy="117.7" r="4"/>
	<circle class="st2" cx="523.6" cy="101.4" r="5.5"/>
	<circle class="st2" cx="553.1" cy="77.6" r="2.6"/>
	<circle class="st2" cx="532.1" cy="162.8" r="3.1"/>
	<circle class="st2" cx="1875.9" cy="255.3" r="5"/>
	<circle class="st2" cx="341.4" cy="23.5" r="7.3"/>
	
		<ellipse transform="matrix(0.7287 -0.6848 0.6848 0.7287 -55.7343 393.0952)" class="st2" cx="468.3" cy="266.9" rx="6.7" ry="6.7"/>
	<ellipse transform="matrix(0.7287 -0.6848 0.6848 0.7287 273.6178 1155.209)" class="st2" cx="1594.9" cy="232.3" rx="5" ry="5"/>
	<ellipse transform="matrix(0.7287 -0.6848 0.6848 0.7287 77.2992 481.1656)" class="st2" cx="646" cy="143" rx="6.7" ry="6.7"/>
	
		<ellipse transform="matrix(0.7287 -0.6848 0.6848 0.7287 147.8574 593.6303)" class="st2" cx="823.2" cy="110.2" rx="3.9" ry="3.9"/>
	
		<ellipse transform="matrix(0.7287 -0.6848 0.6848 0.7287 152.6528 961.3635)" class="st2" cx="1289.7" cy="288" rx="1.5" ry="1.5"/>
	
		<ellipse transform="matrix(0.7287 -0.6848 0.6848 0.7287 193.9968 958.3986)" class="st2" cx="1306.7" cy="234.3" rx="3.7" ry="3.7"/>
	
		<ellipse transform="matrix(0.7287 -0.6848 0.6848 0.7287 167.9552 840.0025)" class="st2" cx="1144.2" cy="208" rx="3.3" ry="3.3"/>
	<ellipse transform="matrix(0.7287 -0.6848 0.6848 0.7287 84.441 756.7531)" class="st2" cx="997.4" cy="271.8" rx="4.3" ry="4.3"/>
	
		<ellipse transform="matrix(0.7287 -0.6848 0.6848 0.7287 -188.4678 95.8072)" class="st2" cx="26.7" cy="285.8" rx="9.7" ry="9.7"/>
	<circle class="st2" cx="1503.1" cy="251.5" r="6.7"/>
	<circle class="st2" cx="293" cy="174.4" r="3.9"/>
	<circle class="st2" cx="418.8" cy="84.2" r="1.5"/>
	<circle class="st2" cx="691.4" cy="26.8" r="3.7"/>
	<circle class="st2" cx="511.2" cy="28.3" r="3.3"/>
	<circle class="st2" cx="564" cy="19.4" r="4"/>
	<circle class="st2" cx="320.6" cy="279.8" r="6.4"/>
	<circle class="st2" cx="388.5" cy="186.5" r="6.7"/>
	<circle class="st2" cx="318.5" cy="86.5" r="7.3"/>
	<circle class="st2" cx="231.2" cy="79.6" r="1.5"/>
	<circle class="st2" cx="138.8" cy="135.5" r="3.3"/>
	<circle class="st2" cx="86" cy="154.4" r="4"/>
	<circle class="st2" cx="200" cy="222" r="4"/>
	<circle class="st2" cx="46.5" cy="160.6" r="5.5"/>
	<circle class="st2" cx="17" cy="184.4" r="2.6"/>
	<circle class="st2" cx="150" cy="33.1" r="4.3"/>
	<circle class="st2" cx="41" cy="15.6" r="3.1"/>
	<circle class="st2" cx="38" cy="99.3" r="3.1"/>
	<path class="st1" d="M126.6,63.6L108,68.2c-8.6,2.1-15.3,8.8-17.4,17.4L86,104.2l-4.6-18.6C79.3,77,72.6,70.3,64,68.2l-18.6-4.6
		L64,59c8.6-2.1,15.3-8.8,17.4-17.4L86,23l4.6,18.6c2.1,8.6,8.8,15.3,17.4,17.4L126.6,63.6z"/>
</g>
</svg>
